<?xml version="1.0" encoding="utf-8"?>
<!-- Generator: Adobe Illustrator 21.0.0, SVG Export Plug-In . SVG Version: 6.00 Build 0)  -->
<svg version="1.1" id="Laag_1" xmlns="http://www.w3.org/2000/svg" xmlns:xlink="http://www.w3.org/1999/xlink" x="0px" y="0px"
	 viewBox="0 0 247 320.1" style="enable-background:new 0 0 247 320.1;" xml:space="preserve">
<style type="text/css">
	.st0{display:none;}
	.st1{fill:#333333;stroke:#FFFF00;stroke-width:9;stroke-miterlimit:10;}
	.st2{fill:#333333;stroke:#FFFF00;stroke-width:10;stroke-miterlimit:10;}
	.st3{fill:#333333;stroke:#FFFF00;stroke-width:11;stroke-miterlimit:10;}
	.st4{fill:#333333;stroke:#FFFF00;stroke-width:12;stroke-miterlimit:10;}
	.st5{fill:#FFFF00;}
</style>
<g id="Laag_3" class="st0">
</g>
<g id="Laag_2">
	<g>
		
			<image style="overflow:visible;opacity:0.75;enable-background:new    ;" width="267" height="337" xlink:href="B28F1031.png"  transform="matrix(0.9967 0 0 0.9967 -5.1894 0)">
		</image>
		<g>
			<g>
				<path class="st1" d="M78.9,43.5c0,0,25.7-31,35-27.4s34.6,23.7,46.7,45.9s-51.9,31-51.9,31L78.9,43.5z"/>
				<path class="st2" d="M46.3,64.5c0,0,15.7-27.8,22.9-26.9s33.8,11.7,39,24.1s-35.8,43-35.8,43L46.3,64.5z"/>
				<path class="st3" d="M137.6,61.2c0,0,33.8-15.7,37.4-10.5s42.2,65.2,38.2,130.3c-4,65.2-104.2-78.4-104.2-78.4L137.6,61.2z"/>
				<path class="st1" d="M13,173.5c0,0,6-118.2,24.9-116.6s63.5,20.9,63.5,20.9l-30.6,113L13,173.5z"/>
				<path class="st2" d="M74.9,78.1c0,0,38.6-40.6,50.3-37s41.4,37,42.6,41.8c1.2,4.8-57.5,52.7-57.5,52.7L74.9,78.1z"/>
				<path class="st4" d="M112.3,92.6c0,0,44.2-23.7,58.7-19.3c14.5,4.4,50.3,63.5,41,131.1"/>
				<path class="st4" d="M69.3,75.3c-6.2-0.1-7.7,2.5-12.2,6.7C43.4,95.1,16,127.2,13,177c0,0-4,41.4,26.1,79.6s80.8,31.4,80.8,31.4
					s72.4-6,90.5-74s-47.5-98.5-68.8-110.6C117.4,89.7,78.3,75.5,69.3,75.3z"/>
			</g>
		</g>
	</g>
	<g>
		<path class="st5" d="M69.4,170.8c-2.3-5.5-2.1-11.7,0.4-17.1c1.6-3.3,3.8-6.4,6.9-6.3c6.7,0.3,9.2,11.5,8.9,15S84,175.1,77,176.1
			C73.2,176.6,70.9,174.2,69.4,170.8z"/>
		<path class="st5" d="M136.2,171.1c-2.3-5.5-2.1-11.7,0.4-17.1c1.6-3.3,3.8-6.4,6.9-6.3c6.7,0.3,9.2,11.5,8.9,15
			s-1.6,12.7-8.6,13.7C140,176.9,137.6,174.5,136.2,171.1z"/>
		<path class="st5" d="M83.6,204c0,0,26.4-5.2,52.3-0.6c0,0,0.3,26.8-25.2,27.1C85.1,230.8,82.3,205.9,83.6,204z"/>
		<path class="st5" d="M90.4,222.6c4.2,4.5,10.6,8,20.2,7.9c18.1-0.2,23.2-13.7,24.6-21.5c-0.9-0.3-2-0.5-3.1-0.6
			C109.3,205.2,94.3,218.6,90.4,222.6z"/>
	</g>
</g>
</svg>
