<?xml version="1.0" encoding="utf-8"?>
<!-- Generator: Adobe Illustrator 21.0.0, SVG Export Plug-In . SVG Version: 6.00 Build 0)  -->
<svg version="1.1" id="Laag_1" xmlns="http://www.w3.org/2000/svg" xmlns:xlink="http://www.w3.org/1999/xlink" x="0px" y="0px"
	 viewBox="0 0 283.5 283.5" style="enable-background:new 0 0 283.5 283.5;" xml:space="preserve">
<style type="text/css">
	.st0{display:none;}
	.st1{fill:#333333;stroke:#FFFF00;stroke-width:8.6599;stroke-miterlimit:10;}
	.st2{fill:#333333;stroke:#FFFF00;stroke-width:9.6221;stroke-miterlimit:10;}
	.st3{fill:#333333;stroke:#FFFF00;stroke-width:10.5843;stroke-miterlimit:10;}
	.st4{fill:#333333;stroke:#FFFF00;stroke-width:11.5465;stroke-miterlimit:10;}
	.st5{fill:#FFFF00;}
</style>
<g id="Laag_3" class="st0">
</g>
<g id="Laag_2">
	<g>
		<g>
			<g>
				<path class="st1" d="M109.6,40c0,0,24.7-29.8,33.7-26.4c8.9,3.5,33.3,22.8,44.9,44.2s-49.9,29.8-49.9,29.8L109.6,40z"/>
				<path class="st2" d="M78.2,60.2c0,0,15.1-26.7,22-25.9s32.5,11.3,37.5,23.2c5,11.9-34.4,41.4-34.4,41.4L78.2,60.2z"/>
				<path class="st3" d="M166,57c0,0,32.5-15.1,36-10.1s40.6,62.7,36.8,125.4c-3.8,62.7-100.3-75.4-100.3-75.4L166,57z"/>
				<path class="st1" d="M46.1,165.1c0,0,5.8-113.7,24-112.2C88.3,54.4,131.2,73,131.2,73l-29.4,108.7L46.1,165.1z"/>
				<path class="st2" d="M105.7,73.3c0,0,37.1-39.1,48.4-35.6s39.8,35.6,41,40.2c1.2,4.6-55.3,50.7-55.3,50.7L105.7,73.3z"/>
				<path class="st4" d="M141.7,87.2c0,0,42.5-22.8,56.5-18.6c14,4.2,48.4,61.1,39.5,126.1"/>
				<path class="st4" d="M100.3,70.6c-6-0.1-7.4,2.4-11.7,6.4C75.4,89.6,49,120.5,46.1,168.4c0,0-3.8,39.8,25.1,76.6
					s77.7,30.2,77.7,30.2s69.7-5.8,87.1-71.2s-45.7-94.8-66.2-106.4C146.6,84.4,109,70.8,100.3,70.6z"/>
			</g>
		</g>
	</g>
	<g>
		<path class="st5" d="M100.4,162.5c-2.2-5.3-2-11.3,0.4-16.5c1.5-3.2,3.7-6.2,6.6-6.1c6.4,0.3,8.9,11.1,8.6,14.4
			c-0.3,3.4-1.5,12.2-8.3,13.2C104.1,168,101.9,165.7,100.4,162.5z"/>
		<path class="st5" d="M164.7,162.7c-2.2-5.3-2-11.3,0.4-16.5c1.5-3.2,3.7-6.2,6.6-6.1c6.4,0.3,8.9,11.1,8.6,14.4
			c-0.3,3.4-1.5,12.2-8.3,13.2C168.3,168.3,166,166,164.7,162.7z"/>
		<path class="st5" d="M114.1,194.4c0,0,25.4-5,50.3-0.6c0,0,0.3,25.8-24.2,26.1C115.5,220.2,112.8,196.2,114.1,194.4z"/>
		<path class="st5" d="M120.6,212.3c4,4.3,10.2,7.7,19.4,7.6c17.4-0.2,22.3-13.2,23.7-20.7c-0.9-0.3-1.9-0.5-3-0.6
			C138.8,195.6,124.4,208.5,120.6,212.3z"/>
	</g>
</g>
</svg>
